<svg width="40" height="40" viewBox="0 0 40 40" fill="none" xmlns="http://www.w3.org/2000/svg">
<path d="M20 0C8.954 0 0 8.954 0 20C0 31.046 8.954 40 20 40C31.046 40 40 31.046 40 20C40 8.954 31.046 0 20 0Z" fill="#3182CE"/>
<path d="M20 5C11.716 5 5 11.716 5 20C5 28.284 11.716 35 20 35C28.284 35 35 28.284 35 20C35 11.716 28.284 5 20 5Z" fill="white"/>
<path d="M29.5 20C29.5 25.247 25.247 29.5 20 29.5C14.753 29.5 10.5 25.247 10.5 20C10.5 14.753 14.753 10.5 20 10.5C25.247 10.5 29.5 14.753 29.5 20Z" fill="currentColor"/>
<path d="M20 12.5C15.858 12.5 12.5 15.858 12.5 20C12.5 24.142 15.858 27.5 20 27.5C24.142 27.5 27.5 24.142 27.5 20C27.5 15.858 24.142 12.5 20 12.5Z" fill="#3182CE"/>
</svg>
