<svg width="200" height="200" viewBox="0 0 200 200" fill="none" xmlns="http://www.w3.org/2000/svg">
<g clip-path="url(#clip0_204_2)">
<path d="M100 0C44.77 0 0 44.77 0 100C0 155.23 44.77 200 100 200C155.23 200 200 155.23 200 100C200 44.77 155.23 0 100 0ZM100 184C53.59 184 16 146.41 16 100C16 53.59 53.59 16 100 16C146.41 16 184 53.59 184 100C184 146.41 146.41 184 100 184Z" fill="#e2e8f0"/>
<path d="M115.13 147.5V132.33C124.94 130.63 131.71 123.63 131.71 113.89V62.49C131.71 52.81 124.94 45.81 115.13 44.11V29H143.05V147.5H115.13Z" fill="#3182ce"/>
<path d="M56.95 29V147.5H84.87V132.33C75.06 130.63 68.29 123.63 68.29 113.89V62.49C68.29 52.81 75.06 45.81 84.87 44.11V29H56.95Z" fill="#3182ce"/>
</g>
<defs>
<clipPath id="clip0_204_2">
<rect width="200" height="200" fill="white"/>
</clipPath>
</defs>
</svg>
